<?xml version="1.0" encoding="UTF-8"?>
<svg width="156px" height="80px" viewBox="0 0 156 80" version="1.1" xmlns="http://www.w3.org/2000/svg" xmlns:xlink="http://www.w3.org/1999/xlink">
    <!-- Generator: Sketch 51 (57462) - http://www.bohemiancoding.com/sketch -->
    <title>Group 9</title>
    <desc>Created with Sketch.</desc>
    <defs>
        <polygon id="path-1" points="0.0003 0.0005 156 0.0005 156 80 0.0003 80"></polygon>
        <polygon id="path-3" points="0.5621 0.6934 9.2701 0.6934 9.2701 23 0.5621 23"></polygon>
    </defs>
    <g id="Page-1" stroke="none" stroke-width="1" fill="none" fill-rule="evenodd">
        <g id="Artboard" transform="translate(-203.000000, -105.000000)">
            <g id="Group-9" transform="translate(203.000000, 105.000000)">
                <g id="Group-3">
                    <mask id="mask-2" fill="white">
                        <use xlink:href="#path-1"></use>
                    </mask>
                    <g id="Clip-2"></g>
                    <path d="M119.1733,47.6055 L119.1733,36.7825 L131.6643,36.7825 L119.1733,47.6055 Z M0.0003,0.0005 L0.0003,80.0005 L15.5803,80.0005 C7.2493,76.5915 2.5003,68.5015 2.5003,58.7405 C2.5003,45.3725 11.6713,35.7375 24.9233,35.7375 C36.0673,35.7375 44.0813,42.1305 45.2773,53.1405 L32.0693,53.1405 C31.8103,51.5415 30.4013,46.6885 24.5513,46.6885 C17.9233,46.6885 15.7993,52.8355 15.7993,58.7405 C15.7993,64.6395 17.9233,70.7915 24.5513,70.7915 C29.3103,70.7915 31.2863,67.5915 32.1353,63.4735 L45.4663,63.4735 C45.4663,70.0315 40.9723,76.8805 33.6263,80.0005 L47.5883,80.0005 L47.5883,36.7825 L59.5623,36.7825 L59.5623,51.4345 C61.7963,49.3995 64.7743,47.9765 69.0903,47.9765 C74.9873,47.9765 80.2433,51.4795 80.2433,58.8035 L80.2433,80.0005 L91.8563,80.0005 C85.8963,77.4145 82.1933,71.8675 82.1933,64.3385 C82.1933,54.7105 88.9943,46.8625 99.3383,46.8625 C111.3463,46.8625 116.8633,55.3665 116.8633,64.3385 C116.8633,65.2285 116.7923,66.1225 116.5953,66.9755 L93.6773,66.9755 C94.0043,70.9555 96.2423,73.6625 99.9063,73.6625 C102.3273,73.6625 104.5913,72.3745 105.3663,70.5615 L115.9243,70.5615 C114.6283,74.9965 111.3983,78.2125 107.5203,80.0005 L119.1733,80.0005 L119.1733,48.7745 L131.1453,48.7745 L131.1453,80.0005 L137.5273,80.0005 L137.5273,36.7825 L149.5003,36.7825 L149.5003,80.0005 L156.0003,80.0005 L156.0003,0.0005 L0.0003,0.0005 Z" id="Fill-1" fill="#FFFFFF" mask="url(#mask-2)"></path>
                </g>
                <g id="Group-6" transform="translate(59.000000, 57.000000)">
                    <mask id="mask-4" fill="white">
                        <use xlink:href="#path-3"></use>
                    </mask>
                    <g id="Clip-5"></g>
                    <path d="M5.0981,0.6934 C3.0981,0.6934 0.5621,2.0854 0.5621,7.0184 L0.5621,23.0004 L9.2701,23.0004 L9.2701,6.9644 C9.2701,3.2744 8.6051,0.6934 5.0981,0.6934" id="Fill-4" fill="#FFFFFF" mask="url(#mask-4)"></path>
                </g>
                <path d="M100.0273,54.834 C96.3923,54.834 94.2953,56.859 93.7383,60.513 L105.3933,60.513 C105.3933,57.385 103.1763,54.834 100.0273,54.834" id="Fill-7" fill="#FFFFFF"></path>
            </g>
        </g>
    </g>
</svg>