<?xml version="1.0" encoding="UTF-8"?>
<svg width="147px" height="45px" viewBox="0 0 147 45" version="1.1" xmlns="http://www.w3.org/2000/svg" xmlns:xlink="http://www.w3.org/1999/xlink">
    <!-- Generator: Sketch 51 (57462) - http://www.bohemiancoding.com/sketch -->
    <title>Group 10</title>
    <desc>Created with Sketch.</desc>
    <defs>
        <polygon id="path-1" points="0 0.712037209 42.76034 0.712037209 42.76034 44.9298047 0 44.9298047"></polygon>
        <polygon id="path-3" points="0 45.2881767 146.292222 45.2881767 146.292222 1.06933953 0 1.06933953"></polygon>
    </defs>
    <g id="Page-1" stroke="none" stroke-width="1" fill="none" fill-rule="evenodd">
        <g id="Group-10" transform="translate(0.000000, -1.000000)">
            <g id="Group-3" transform="translate(0.000000, 0.357944)">
                <mask id="mask-2" fill="white">
                    <use xlink:href="#path-1"></use>
                </mask>
                <g id="Clip-2"></g>
                <path d="M29.4268956,17.4410605 C29.1688289,15.9038047 27.7674289,11.2385488 21.94514,11.2385488 C15.3486511,11.2385488 13.2362067,17.149014 13.2362067,22.8241302 C13.2362067,28.4949674 15.3486511,34.4075721 21.94514,34.4075721 C26.6818067,34.4075721 28.6472511,31.3319907 29.4933178,27.3738512 L42.76034,27.3738512 C42.76034,35.8870605 34.6176289,44.9298047 22.3153622,44.9298047 C8.34491778,44.9298047 -0.000326666667,35.2944093 -0.000326666667,22.8241302 C-0.000326666667,9.97408372 9.12674,0.712037209 22.3153622,0.712037209 C33.4046067,0.712037209 41.3818067,6.85785116 42.5719622,17.4410605 L29.4268956,17.4410605 Z" id="Fill-1" fill="#FEFEFE" mask="url(#mask-2)"></path>
            </g>
            <mask id="mask-4" fill="white">
                <use xlink:href="#path-3"></use>
            </mask>
            <g id="Clip-5"></g>
            <polygon id="Fill-4" fill="#FEFEFE" mask="url(#mask-4)" points="116.111489 44.2858047 128.025022 44.2858047 128.025022 13.6027349 116.111489 13.6027349"></polygon>
            <polygon id="Fill-6" fill="#FEFEFE" mask="url(#mask-4)" points="134.3776 44.2847349 146.292222 44.2847349 146.292222 2.07385116 134.3776 2.07385116"></polygon>
            <polygon id="Fill-7" fill="#FEFEFE" mask="url(#mask-4)" points="116.111598 12.4788372 116.111598 2.0732093 128.542353 2.0732093"></polygon>
            <path d="M102.398349,24.886214 C102.398349,21.8790977 100.19226,19.4271907 97.0584378,19.4271907 C93.44006,19.4271907 91.35266,21.3741674 90.7984156,24.886214 L102.398349,24.886214 Z M90.7385267,31.0983535 C91.0630156,34.9238419 93.2908822,37.5255163 96.9375711,37.5255163 C99.3461933,37.5255163 101.600193,36.2867256 102.371127,34.5451442 L112.878904,34.5451442 C110.816549,41.3574233 103.841127,45.1829116 97.1695044,45.1829116 C86.5746156,45.1829116 79.30846,38.7418419 79.30846,28.5640744 C79.30846,19.3084465 86.0780822,11.7644465 96.3724378,11.7644465 C108.321904,11.7644465 113.813171,19.9385395 113.813171,28.5640744 C113.813171,29.4188186 113.741304,30.2778419 113.546393,31.0983535 L90.7385267,31.0983535 Z" id="Fill-8" fill="#FEFEFE" mask="url(#mask-4)"></path>
            <path d="M56.7872978,16.1593721 C59.0108089,14.2027674 61.9747644,12.8345349 66.2693422,12.8345349 C72.1384533,12.8345349 77.3683867,16.2032326 77.3683867,23.2433721 L77.3683867,44.2856977 L65.4526756,44.2856977 L65.4526756,28.2038837 C65.4526756,24.6565349 64.79172,22.1757442 61.3018311,22.1757442 C59.3113422,22.1757442 56.7872978,23.5129535 56.7872978,28.2552326 L56.7872978,44.2856977 L44.8715867,44.2856977 L44.8715867,2.07374419 L56.7872978,2.07374419 L56.7872978,16.1593721 Z" id="Fill-9" fill="#FEFEFE" mask="url(#mask-4)"></path>
        </g>
    </g>
</svg>