<svg width="19" height="22" xmlns="http://www.w3.org/2000/svg">
 <g>
  <title>background</title>
  <rect x="-1" y="-1" width="21" height="24" id="canvas_background" fill="none"/>
 </g>

 <g>
  <title>Layer 1</title>
  <g stroke="null" id="svg_1">
   <path stroke="null" d="m18.349359,0.809409c-0.1883,-0.270457 -0.44187,-0.468241 -0.760149,-0.593707c-0.202703,-0.086771 -0.415143,-0.130233 -0.637219,-0.130233l0,-0.000203l-15.174286,0c-0.221974,0 -0.434212,0.043462 -0.636966,0.130233c-0.318483,0.125365 -0.57195,0.323402 -0.760149,0.593707c-0.188148,0.270305 -0.282375,0.569415 -0.282375,0.897685l0,18.66365c0,0.328372 0.094226,0.627381 0.282375,0.897939c0.188199,0.270254 0.441667,0.468241 0.760149,0.593555c0.202551,0.086771 0.414991,0.130132 0.636966,0.130132c0.453838,0 0.854224,-0.159343 1.201816,-0.477623l6.385377,-6.139517l6.385377,6.139669c0.337906,0.308391 0.738495,0.462865 1.201664,0.462865c0.241398,0 0.453787,-0.03834 0.637219,-0.115577c0.31828,-0.125314 0.571849,-0.323301 0.760149,-0.59391c0.188148,-0.270203 0.282172,-0.569263 0.282172,-0.897584l0,-18.663397c0.000051,-0.328271 -0.094176,-0.627381 -0.282121,-0.897685l0,0zm-1.571114,19.112011l-6.124658,-5.878493l-1.288689,-1.23052l-1.288588,1.23052l-6.124607,5.878493l0,-17.982614l14.826541,0l0,17.982614l0,0z" fill="#a7a7a7" id="svg_2"/>
  </g>
 </g>
</svg>