<svg width="27" height="22" xmlns="http://www.w3.org/2000/svg">
 <g>
  <title>background</title>
  <rect x="-1" y="-1" width="29" height="24" id="canvas_background" fill="none"/>
 </g>

 <g>
  <title>Layer 1</title>
  <g stroke="null" id="svg_1">
   <path stroke="null" d="m8.681402,21.83643c-2.956144,0 -5.830712,-0.841887 -8.313867,-2.43587c-0.231778,-0.148985 -0.329914,-0.43748 -0.237689,-0.697595c0.092224,-0.260159 0.355904,-0.425703 0.62671,-0.386631c2.082313,0.242339 4.255678,-0.180972 6.079049,-1.223868c-1.803248,-0.54157 -3.269499,-1.938109 -3.861919,-3.789773c-0.063844,-0.199835 -0.017732,-0.417402 0.121779,-0.573471c0.085141,-0.094658 0.197444,-0.158459 0.319266,-0.18445c-1.408317,-1.072536 -2.297533,-2.765828 -2.297533,-4.625836c0,-0.209309 0.111174,-0.435134 0.292059,-0.541571c0.180929,-0.106436 0.404406,-0.13951 0.586509,-0.040201c0.052024,0.029553 0.10522,0.057934 0.158459,0.083967c-0.639705,-0.944803 -0.994435,-2.075229 -0.994435,-3.255331c0,-1.024033 0.270763,-2.033811 0.786343,-2.91829c0.096962,-0.16789 0.270764,-0.276674 0.464687,-0.292059c0.192751,-0.014169 0.380764,0.066235 0.503716,0.21522c2.392105,2.933675 5.854354,4.793684 9.588584,5.175621c-0.016559,-0.178539 -0.024817,-0.360642 -0.024817,-0.540397c0,-3.200918 2.604934,-5.805895 5.805852,-5.805895c1.48633,0 2.925417,0.57586 3.999083,1.592766c0.987395,-0.225868 1.933328,-0.605415 2.816634,-1.129253c0.211657,-0.122995 0.476553,-0.105263 0.669259,0.046112c0.191577,0.153722 0.269633,0.409144 0.195097,0.643269c-0.188013,0.587683 -0.467034,1.13751 -0.825328,1.630621c0.245947,-0.085141 0.487157,-0.180929 0.724846,-0.286148c0.237689,-0.108784 0.522621,-0.042549 0.691728,0.160807c0.169107,0.201008 0.184493,0.49072 0.039028,0.70946c-0.687035,1.024033 -1.524185,1.916769 -2.490284,2.658174c0.003564,0.12769 0.004737,0.256595 0.004737,0.384284c0.000044,7.581937 -5.771561,15.426337 -15.427553,15.426337zm-5.593022,-2.327044c1.758353,0.753183 3.656173,1.144595 5.593022,1.144595c8.916935,0 14.245105,-7.242592 14.245105,-14.245061c0,-0.216394 -0.005911,-0.43396 -0.014169,-0.650354c-0.008258,-0.198661 0.083967,-0.387848 0.244774,-0.503716c0.425703,-0.307444 0.825328,-0.64679 1.195487,-1.015732c-0.385501,0.088704 -0.776869,0.157286 -1.173017,0.204572c-0.274327,0.039028 -0.53918,-0.130079 -0.630231,-0.394932c-0.089878,-0.263679 0.016559,-0.554565 0.255422,-0.698856c0.469424,-0.281411 0.880958,-0.640879 1.21913,-1.055934c-0.590073,0.225868 -1.197878,0.402016 -1.818635,0.522621c-0.198661,0.041419 -0.405623,-0.024816 -0.545134,-0.174974c-0.870267,-0.927071 -2.101262,-1.459167 -3.375936,-1.459167c-2.549391,0 -4.623403,2.074012 -4.623403,4.623403c0,0.353556 0.040202,0.709461 0.120561,1.05476c0.041375,0.179756 -0.003521,0.370115 -0.122952,0.513189c-0.118258,0.141901 -0.296796,0.240036 -0.482463,0.210483c-4.035721,-0.203399 -7.837359,-1.997173 -10.568852,-4.962791c-0.174975,0.494284 -0.264853,1.016905 -0.264853,1.544307c0,1.551391 0.768612,2.988088 2.055106,3.847751c0.219958,0.146638 0.315702,0.419748 0.235299,0.671649c-0.080403,0.250684 -0.329914,0.402016 -0.580554,0.411491c-0.564039,-0.017732 -1.124559,-0.118257 -1.659001,-0.29797c0.365378,1.831629 1.773695,3.283711 3.613625,3.653783c0.269589,0.054414 0.46586,0.284976 0.474162,0.559302c0.009475,0.273154 -0.170238,0.517884 -0.43396,0.591246c-0.509626,0.138381 -1.045286,0.216393 -1.569123,0.205745c0.792254,1.40119 2.2798,2.312875 3.939975,2.345993c0.249511,0.004737 0.469424,0.167891 0.548654,0.404406s0,0.499022 -0.196314,0.652787c-1.661348,1.301794 -3.607714,2.084573 -5.681727,2.297403z" fill="#a7a7a7" id="svg_2"/>
  </g>
  <g id="svg_3"/>
  <g id="svg_4"/>
  <g id="svg_5"/>
  <g id="svg_6"/>
  <g id="svg_7"/>
  <g id="svg_8"/>
  <g id="svg_9"/>
  <g id="svg_10"/>
  <g id="svg_11"/>
  <g id="svg_12"/>
  <g id="svg_13"/>
  <g id="svg_14"/>
  <g id="svg_15"/>
  <g id="svg_16"/>
  <g id="svg_17"/>
 </g>
</svg>