<svg width="12" height="22" xmlns="http://www.w3.org/2000/svg">
 <g>
  <title>background</title>
  <rect x="-1" y="-1" width="14" height="24" id="canvas_background" fill="none"/>
 </g>

 <g>
  <title>Layer 1</title>
  <g stroke="null" id="svg_1">
   <path stroke="null" d="m7.681401,21.763127l-3.803079,0c-0.287262,0 -0.520392,-0.233129 -0.520392,-0.520392l0,-8.932143l-2.661339,0c-0.287262,0 -0.520392,-0.233129 -0.520392,-0.520392l0,-3.683409c0,-0.287262 0.233129,-0.520392 0.520392,-0.520392l2.661339,0l0,-2.195053c-0.000027,-3.326406 2.013941,-5.391348 5.257059,-5.391348c1.448787,0 2.615532,0.111371 2.910049,0.150913c0.259179,0.034348 0.451695,0.255002 0.451695,0.516242l0,3.293102c0,0.287262 -0.233129,0.520392 -0.520392,0.520392l-1.948377,0.002088c-1.125088,0 -1.3062,0.374672 -1.3062,1.272896l0,1.831812l3.127598,0c0.149869,0 0.292483,0.06452 0.39028,0.176935c0.098896,0.111371 0.144703,0.26124 0.125962,0.410065l-0.474612,3.683382c-0.033304,0.260196 -0.254975,0.454827 -0.516215,0.454827l-2.653013,0l0,8.93217c0.000027,0.286218 -0.233102,0.518303 -0.520364,0.518303l0,0zm-3.282688,-1.040811l2.762269,0l0,-8.932143c0,-0.287262 0.233129,-0.520392 0.520392,-0.520392l2.715445,0l0.341395,-2.642599l-3.056813,0c-0.287262,0 -0.520392,-0.233129 -0.520392,-0.520392l0,-2.352204c0,-0.992915 0.243544,-2.313706 2.34701,-2.313706l1.42903,-0.001044l0,-2.303292c-0.53185,-0.045807 -1.386355,-0.095763 -2.322032,-0.095763c-2.64051,0 -4.216276,1.62575 -4.216276,4.350537l0,2.715445c0,0.287262 -0.233129,0.520392 -0.520392,0.520392l-2.661339,0l0,2.642599l2.661339,0c0.287262,0 0.520392,0.233129 0.520392,0.520392l0,8.93217l-0.000027,0l0,0z" fill="#a7a7a7" id="svg_2"/>
  </g>
  <g id="svg_3"/>
  <g id="svg_4"/>
  <g id="svg_5"/>
  <g id="svg_6"/>
  <g id="svg_7"/>
  <g id="svg_8"/>
  <g id="svg_9"/>
  <g id="svg_10"/>
  <g id="svg_11"/>
  <g id="svg_12"/>
  <g id="svg_13"/>
  <g id="svg_14"/>
  <g id="svg_15"/>
  <g id="svg_16"/>
  <g id="svg_17"/>
 </g>
</svg>